<svg width="27" height="23" viewBox="0 0 27 23" fill="none" xmlns="http://www.w3.org/2000/svg">
<path fill-rule="evenodd" clip-rule="evenodd" d="M4.78376 0.0284235L4.50641 0.0416213V0.307719V0.573816H3.95172H3.39703V0.835743V1.09767L2.96667 1.1225C2.72999 1.13612 2.35127 1.14736 2.12508 1.14744L1.71384 1.14763V1.41541V1.68319H1.42693H1.14002V1.9701V2.25701H0.589659H0.0392932L0.01152 2.83052C-0.00374355 3.14597 -0.00385877 3.64346 0.01129 3.93615L0.0388717 4.46823L0.589429 4.49573C0.892251 4.51088 1.38963 4.51081 1.69471 4.49554L2.2494 4.46781V4.20401V3.9402H2.5155H2.7816L2.79284 3.66286L2.80409 3.38551L3.36834 3.37492L3.9326 3.36436V3.09861V2.83285L4.49685 2.8223L5.0611 2.8117L5.07235 2.53435L5.0836 2.25701H7.33892H9.59425V2.52081V2.78461L10.1489 2.81235L10.7036 2.84008V3.1022V3.36436L11.2679 3.37492L11.8321 3.38551L11.8434 3.66286L11.8546 3.9402H12.1207H12.3868V4.20435V4.46846L12.9606 4.49615L13.5345 4.52381V4.78241V5.04097L14.07 5.06871L14.6056 5.09644V5.355V5.6136L15.1794 5.64126L15.7532 5.66896V5.93307V6.19721H16.3079H16.8626V6.46044V6.72367L18.0145 6.75202C18.648 6.76759 19.9133 6.76763 20.8262 6.75206L22.486 6.72375V6.46048V6.19721H23.0598H23.6336V5.93525V5.67328L24.0413 5.64834C24.2654 5.6346 24.6434 5.6234 24.8812 5.6234H25.3134L25.3247 5.34605L25.3359 5.06871L25.6133 5.05746L25.8906 5.04621V4.78475V4.52328L26.4453 4.49554L27 4.46781V3.36241V2.25701H25.8906H24.7812V2.54392V2.83083H24.4943H24.2074V3.09428V3.35774L23.6336 3.38551L23.0598 3.41329V3.67675V3.9402H22.5051H21.9504V4.20217V4.46414L21.5428 4.48908C21.3186 4.50281 20.303 4.51402 19.2858 4.51402H17.4364V4.25022V3.98642L16.8817 3.95868L16.327 3.93095V3.67212V3.41329L15.7532 3.38551L15.1794 3.35774V3.09597V2.83419L14.902 2.82295L14.6247 2.8117L14.6135 2.53435L14.6022 2.25701H14.0492H13.4962V1.99321V1.72941L12.9415 1.70167L12.3868 1.67394V1.41541V1.15689L11.8321 1.12916L11.2774 1.10142V0.842514V0.58361L10.7036 0.555951L10.1298 0.528255V0.264147V0L7.59546 0.00761282C6.20158 0.0117826 4.93632 0.0211551 4.78376 0.0284235ZM4.78376 7.90883L4.50641 7.92203V8.16502V8.40801L3.95172 8.43575L3.39703 8.46348V8.72074V8.97804L2.93198 9.00302C2.67621 9.01679 2.29749 9.02804 2.09038 9.02804H1.71384V9.29582V9.5636H1.42693H1.14002V9.85051V10.1374H0.589659H0.0392932L0.01152 10.7109C-0.00374355 11.0264 -0.00385877 11.5239 0.01129 11.8166L0.0388717 12.3486L0.589429 12.3761C0.892251 12.3913 1.38963 12.3912 1.69471 12.376L2.2494 12.3482V12.0844V11.8206H2.5155H2.7816L2.79284 11.5433L2.80409 11.2659L3.36834 11.2553L3.9326 11.2448V10.9823V10.7199L4.50641 10.6921L5.08023 10.6643V10.4009V10.1374H7.33724H9.59425V10.4012V10.665L10.1489 10.6928L10.7036 10.7205V10.9826V11.2448L11.2679 11.2553L11.8321 11.2659L11.8434 11.5433L11.8546 11.8206H12.1207H12.3868V12.0848V12.3489L12.9606 12.3766L13.5345 12.4042V12.6628V12.9214L14.07 12.9491L14.6056 12.9768V13.2403V13.5038H15.1794H15.7532V13.7907V14.0776H16.3079H16.8626V14.3408V14.6041L18.0145 14.6324C18.648 14.648 19.9133 14.648 20.8262 14.6325L22.486 14.6042V14.3409V14.0776H23.0598H23.6336V13.7907V13.5038H24.4735H25.3134L25.3247 13.2265L25.3359 12.9491L25.6133 12.9379L25.8906 12.9266V12.6652V12.4037L26.4453 12.376L27 12.3482V11.2428V10.1374H25.8906H24.7812V10.4243V10.7112H24.4943H24.2074V10.9747V11.2381L23.6336 11.2659L23.0598 11.2937V11.5572V11.8206H22.5051H21.9504V12.0823V12.344L21.1184 12.3691C20.0561 12.4012 18.422 12.4013 17.8668 12.3693L17.4364 12.3445V12.0825V11.8206H16.8817H16.327V11.5572V11.2937L15.7532 11.2659L15.1794 11.2381V10.9764V10.7146L14.902 10.7034L14.6247 10.6921L14.6135 10.4148L14.6022 10.1374H14.0492H13.4962V9.87361V9.60981L12.9431 9.58215L12.39 9.5545L12.3788 9.2817L12.3677 9.00891L11.8226 8.99832L11.2774 8.98768V8.72529V8.46287L10.7036 8.4351L10.1298 8.40732V8.14387V7.88041L7.59546 7.88802C6.20158 7.89219 4.93632 7.90156 4.78376 7.90883ZM4.50641 16.0246V16.2884L3.95172 16.3162L3.39703 16.3439V16.607V16.8702H2.96308C2.72437 16.8702 2.34565 16.8814 2.12148 16.8951L1.71384 16.9201V17.182V17.444H1.42693H1.14002V17.7309V18.0178H0.589659H0.0392932L0.01152 18.5913C-0.00374355 18.9068 -0.00385877 19.4042 0.01129 19.6966L0.0388332 20.2284L0.570608 20.2559C0.863063 20.2711 1.36045 20.271 1.67589 20.2557L2.2494 20.2279V19.9645V19.701H2.5155H2.7816L2.79284 19.4237L2.80409 19.1463L3.36834 19.1357L3.9326 19.1252V18.8627V18.6003L4.50641 18.5725L5.08023 18.5447V18.2813V18.0178H7.33724H9.59425V18.2816V18.5454L10.1489 18.5732L10.7036 18.6009V18.863V19.1252L11.2679 19.1357L11.8321 19.1463L11.8434 19.4237L11.8546 19.701H12.1207H12.3868V19.9645V20.2279L12.9606 20.2557L13.5345 20.2835V20.5427V20.8018L14.07 20.8295L14.6056 20.8573V21.1207V21.3842H15.1794H15.7532V21.6711V21.958H16.3079H16.8626V22.2197V22.4813L18.0635 22.5051C18.7241 22.5182 19.9893 22.5182 20.8752 22.5051L22.486 22.4812V22.2245V21.9678L23.0598 21.9402L23.6336 21.9125V21.6484V21.3842H24.4752H25.3168V21.0973V20.8104H25.6037H25.8906V20.5472V20.2841L26.4453 20.2564L27 20.2286V19.1232V18.0178H25.8923H24.7846L24.7734 18.2952L24.7621 18.5725L24.4848 18.5838L24.2074 18.595V18.8601V19.1252L23.6432 19.1357L23.0789 19.1463L23.0677 19.4237L23.0564 19.701H22.5034H21.9504V19.9642V20.2273L20.2717 20.2556C19.3484 20.2712 18.3327 20.2713 18.0147 20.2559L17.4364 20.2279V19.9645V19.701H16.8817H16.327V19.4376V19.1741L15.7532 19.1463L15.1794 19.1186V18.8568V18.595L14.902 18.5838L14.6247 18.5725L14.6135 18.2952L14.6022 18.0178H14.0492H13.4962V17.7309V17.444H12.9415H12.3868V17.1571V16.8702H11.8321H11.2774V16.6067V16.3433L10.7036 16.3155L10.1298 16.2877V16.0243V15.7608H7.31811H4.50641V16.0246Z" fill="black"/>
</svg>
