<svg width="27" height="22" viewBox="0 0 27 22" fill="none" xmlns="http://www.w3.org/2000/svg">
<path fill-rule="evenodd" clip-rule="evenodd" d="M11.0754 0.225964V0.451927L10.6002 0.475684L10.1251 0.49944V0.724847V0.950253H9.87936H9.6336V1.19601V1.44176H9.40567H9.17774L9.16811 1.67933L9.15847 1.91689L8.92091 1.92652L8.68335 1.93616V2.6556V3.37504H8.91272H9.14209V3.60441V3.83378H9.6336H10.1251V3.60585V3.37792L10.3627 3.36829L10.6002 3.35865L10.6099 3.12109L10.6195 2.88353H10.8474H11.0754V2.63777V2.39202H11.3211H11.5669V2.16265V1.93327H12.5171H13.4674V2.16265V2.39202H13.7131H13.9589V2.63777V2.88353H14.2046H14.4504V3.85016V4.8168H14.2046H13.9589V5.04617V5.27554H13.7295H13.5001V5.5213V5.76705L7.11871 5.76722C3.60893 5.76728 0.571397 5.77692 0.368633 5.78858L0 5.80985V6.75509V7.70033H6.99583H13.9917V7.4724V7.24447L14.2292 7.23483L14.4668 7.2252L14.4764 6.99124L14.4859 6.75732L14.9398 6.73379L15.3936 6.7103L15.4171 6.25643L15.4407 5.80254L15.6746 5.79301L15.9085 5.78344L15.9182 5.54587L15.9278 5.30831H16.1557H16.3837V3.85016V2.39202H16.1557H15.9278L15.9182 2.15445L15.9085 1.91689L15.6743 1.90732L15.4401 1.89775L15.4164 1.424L15.3927 0.950253H14.9394H14.4861L14.4764 0.71269L14.4668 0.475127L14.2292 0.465493L13.9917 0.455859V0.227929V0H12.5335H11.0754V0.225964ZM21.9459 3.85813L21.692 3.8693V4.09333V4.31736L21.2169 4.34112L20.7417 4.36487V4.59084V4.8168H20.4974H20.2531L20.2435 5.05436L20.2338 5.29193L19.9963 5.30156L19.7587 5.31119V5.55551V5.79982H19.5327H19.3068L19.2844 6.26676C19.2721 6.52355 19.2669 6.84428 19.2728 6.97945L19.2836 7.2252L19.5211 7.23483L19.7587 7.24447V7.4724V7.70033H20.2502H20.7417V7.47096V7.24158H20.9697H21.1977L21.2073 6.98764L21.2169 6.73369L21.4544 6.72406L21.692 6.71442V6.48649V6.25856H21.9377H22.1835V6.0326V5.80664L22.6586 5.78288C22.9199 5.76981 23.3476 5.76981 23.6089 5.78288L24.084 5.80664V6.0326V6.25856H24.3298H24.5755V6.50432V6.75007H24.8015H25.0274L25.0512 7.2252C25.0643 7.48652 25.0643 7.91413 25.0512 8.17545L25.0274 8.65058H24.8015H24.5755V8.89489V9.13921L24.3379 9.14884L24.1004 9.15847L24.0908 9.39604L24.0811 9.6336H12.5358H0.990424L0.966637 10.1248C0.953563 10.395 0.95343 10.8205 0.966373 11.0704L0.9899 11.5246L1.3356 11.5457C1.52575 11.5574 6.83252 11.5669 13.1284 11.5669H24.5755V11.3211V11.0754H24.8213H25.067V10.8494V10.6234L25.5384 10.5999L26.0097 10.5763L26.0333 10.105L26.0569 9.6336H26.2828H26.5088V9.38785V9.14209H26.7331H26.9575L26.9788 8.77346C26.9904 8.57073 27 8.0878 27 7.70033C27 7.31285 26.9904 6.82996 26.9788 6.6272L26.9575 6.25856H26.7331H26.5088V6.01281V5.76705H26.2828H26.0569L26.0331 5.29193L26.0093 4.8168H25.5382H25.067V4.57105V4.32529H24.8213H24.5755V4.10093V3.87657L24.2069 3.85531C23.8447 3.83447 22.4448 3.83621 21.9459 3.85813ZM1.93327 14.4504V15.4007L8.92091 15.4007C12.7641 15.4008 16.2292 15.4105 16.6212 15.4223L17.3339 15.4439V15.668V15.8922H17.5797H17.8254V16.1379V16.3837H18.0712H18.3169V16.9848C18.3169 17.3154 18.3074 17.7424 18.2957 17.9336L18.2744 18.2814L18.0581 18.291L17.8418 18.3006L17.8322 18.5367L17.8226 18.7729L17.5865 18.7825L17.3503 18.7921L17.3407 19.0296L17.331 19.2672H16.3822H15.4334V19.0378V18.8085H15.1877H14.9419V18.5641V18.3198L14.7043 18.3102L14.4668 18.3006L14.4577 17.837L14.4486 17.3735L13.9498 17.351C13.6755 17.3387 13.3552 17.3335 13.238 17.3394L13.025 17.3503L13.0154 17.5879L13.0058 17.8254H12.7778H12.5499V18.5463V19.2672H12.7778H13.0058L13.0154 19.5048L13.025 19.7423L13.2626 19.752L13.5001 19.7616V19.9861V20.2106L13.9739 20.2343L14.4477 20.258L14.4572 20.4917L14.4668 20.7253L14.7043 20.735L14.9419 20.7446V20.9725V21.2005H16.3837H17.8254V20.9725V20.7446L18.063 20.735L18.3006 20.7253L18.3101 20.4917L18.3197 20.258L18.7896 20.2345L19.2596 20.211L19.2832 19.7391L19.3068 19.2672H19.5327H19.7587V19.0214V18.7757H19.9847H20.2106L20.2325 18.3088C20.2445 18.052 20.2497 17.4068 20.2441 16.8752L20.2338 15.9085L19.9963 15.8989L19.7587 15.8893V15.645V15.4007H19.5327H19.3068L19.283 14.9255L19.2593 14.4504H18.7881H18.3169V14.2046V13.9589H18.0712H17.8254V13.7295V13.5001H9.87936H1.93327V14.4504Z" fill="black"/>
</svg>
